inDegrees=no
num_controls=7
num_derivatives=13
num_iterations=383
num_multipliers=7
num_parameters=0
num_slacks=7
num_states=26
objective=5.767460
objective_accelerations=0.665163
objective_balance=0.122217
objective_effort=0.447782
objective_height=4.470863
objective_ligament=0.061436
solver_duration=4352.236145
status=Solve_Succeeded
success=true
DataType=double
version=3
OpenSimVersion=4.4-2022-07-23-0e9fedc
endheader
time	/jointset/ground_pelvis/pelvis_tilt/value	/jointset/ground_pelvis/pelvis_tx/value	/jointset/ground_pelvis/pelvis_ty/value	/jointset/hip_l/hip_flexion_l/value	/jointset/hip_l/hip_adduction_l/value	/jointset/hip_l/hip_rotation_l/value	/jointset/back/lumbar_extension/value	/jointset/patellofemoral_l/patellar_flexion_l/value	/jointset/knee_l/knee_flexion_l/value	/jointset/knee_l/knee_adduction_l/value	/jointset/knee_l/knee_rotation_l/value	/jointset/ankle_l/ankle_angle_l/value	/jointset/subtalar_l/subtalar_angle_l/value	/jointset/ground_pelvis/pelvis_tilt/speed	/jointset/ground_pelvis/pelvis_tx/speed	/jointset/ground_pelvis/pelvis_ty/speed	/jointset/hip_l/hip_flexion_l/speed	/jointset/hip_l/hip_adduction_l/speed	/jointset/hip_l/hip_rotation_l/speed	/jointset/back/lumbar_extension/speed	/jointset/patellofemoral_l/patellar_flexion_l/speed	/jointset/knee_l/knee_flexion_l/speed	/jointset/knee_l/knee_adduction_l/speed	/jointset/knee_l/knee_rotation_l/speed	/jointset/ankle_l/ankle_angle_l/speed	/jointset/subtalar_l/subtalar_angle_l/speed	/forceset/tau_hip_flexion_l	/forceset/tau_hip_adduction_l	/forceset/tau_hip_rotation_l	/forceset/tau_knee_flexion_l	/forceset/tau_ankle_angle_l	/forceset/tau_subtalar_angle_l	/forceset/tau_lumbar_extension	lambda_cid13_p0	lambda_cid13_p1	lambda_cid13_p2	lambda_cid13_p3	lambda_cid13_p4	lambda_cid13_p5	lambda_cid14_p0	/jointset/ground_pelvis/pelvis_tilt/accel	/jointset/ground_pelvis/pelvis_tx/accel	/jointset/ground_pelvis/pelvis_ty/accel	/jointset/hip_l/hip_flexion_l/accel	/jointset/hip_l/hip_adduction_l/accel	/jointset/hip_l/hip_rotation_l/accel	/jointset/back/lumbar_extension/accel	/jointset/patellofemoral_l/patellar_flexion_l/accel	/jointset/knee_l/knee_flexion_l/accel	/jointset/knee_l/knee_adduction_l/accel	/jointset/knee_l/knee_rotation_l/accel	/jointset/ankle_l/ankle_angle_l/accel	/jointset/subtalar_l/subtalar_angle_l/accel	gamma_cid13_p0	gamma_cid13_p1	gamma_cid13_p2	gamma_cid13_p3	gamma_cid13_p4	gamma_cid13_p5	gamma_cid14_p0
1	-0.6752652685219959	-0.1084962060335805	0.5881416231599467	1.984310434855179	-0.289097086362536	0.160547951059357	-0.4362762073972726	1.259746960599285	1.259746960599353	-0.1741607887246941	0.1744479784617005	0.1523682245366813	-0.009424564294285436	-0.01181009839343995	0.0004323547789810003	-0.003835667542891322	0.01901537386874918	0.0007826812283988718	0.003636835149523078	0.0003564725123306206	0.009231405396308085	0.009231405396287976	-0.0002147300614950235	3.200902846000653e-05	0.002626276574584301	0.00136505967068189	-0.4583461566641308	-0.005720567016026531	-0.01548764573713805	-0.240461089328259	0.06708700360556392	0.04174422119675186	0.3642119158838509	-24.22419059189679	-14.37874387053729	2.450453601844575	13.03091231845134	-734.0250011859279	-54.80052019512149	-0.1077180362527131	1.971167183581969	0.1962457342655139	1.777159350460891	-6.53585868077708	-0.4522146615794013	-1.850766874188688	-0.03530391309890432	-4.960981741420239	-4.960981741419798	-0.03413925564583157	0.01679507333143195	-0.6875977749024518	-0.6080658844772194	9.421669785396383e-10	2.229250233250571e-09	-6.229301923019633e-09	-8.420207423858159e-10	1.155321422674581e-09	-4.411190331894217e-09	1.417053844655553e-09
1.01	-0.6752854061873057	-0.1084821827782925	0.5881919885943291	1.984174719650476	-0.2891109079963277	0.1604908128987365	-0.436273687999532	1.259591476618726	1.259591476618457	-0.1741623084442122	0.1744482320736717	0.1523602273918647	-0.009440181722121358	0.007791894224948895	0.002367535702751838	0.01390462273983247	-0.04615317294956726	-0.00354632173143434	-0.01505887352861282	0.0001417095464776077	-0.04032722870555938	-0.04032722870557374	-9.488824690492869e-05	1.849263368746912e-05	-0.004240239425826442	-0.00449080947026772	-0.4584002807234916	-0.0009017959590192779	-0.01549520130382131	-0.2401514821512891	0.067393576093199	0.03777377678021564	0.3642178921665424	-24.24128051163131	-12.4859639933033	1.959739272903047	13.23854597352928	-733.8434549724669	-50.8424418074134	-0.1085478770508932	1.9561141996745	0.1914402474102032	1.771842942820034	-6.506566959216055	-0.4231434968505524	-1.878138981857397	-0.01541722110059692	-4.953157044878882	-4.953157044880575	0.03419205676771549	-0.01046480731297375	-0.6883581612849409	-0.5746889927625742	-2.466861447289799e-09	-8.859507152741338e-09	2.778823134389945e-08	2.994913573625983e-10	-5.791581732810353e-09	2.207885557763252e-08	-6.31546343569364e-09
1.02	-0.6751092441465308	-0.1084489505185779	0.5884196327466711	1.983387476121904	-0.2891679997364937	0.1602468844283501	-0.4362734871687954	1.258940435737067	1.258940435736877	-0.1741628005134565	0.1744483425594363	0.1522831291573369	-0.009514426154141031	0.02744984279138027	0.004274155664305421	0.03162007604857268	-0.1112902908424602	-0.007871340038032231	-0.03372122689590017	-0.0001072427303391211	-0.08987997481967204	-0.08987997481967933	-9.200161976606613e-06	3.383781647527307e-06	-0.01119394137315071	-0.01036034116550497	-0.458454404784728	0.003916975098468807	-0.01550275687271042	-0.2398418749736572	0.0677001485814834	0.03380333236438558	0.3642238684470178	-24.26567734930578	-10.59052685719601	1.467027378569395	13.47762923176171	-733.7557773806392	-46.84335398688683	-0.111997324126569	1.982358373190412	0.1905335418221056	1.772191955664162	-6.529572895692223	-0.4514177309321888	-1.84409581201919	-0.04214177528141187	-4.959804143869174	-4.959804143868467	-0.04097000157776907	0.01647658187786916	-0.7050349642850111	-0.6107983953345519	-7.643008728246738e-09	-1.776255839271529e-08	5.915257756384808e-08	6.489173101928727e-09	-1.340312628369905e-08	4.855678260847197e-08	-1.32182515284409e-08
1.03	-0.6747363665813204	-0.1083966100531088	0.5888242920604589	1.981949048016177	-0.2892682229450769	0.1598165089492105	-0.4362758790048289	1.257794050830735	1.257794050830572	-0.1741624928687767	0.1744482876493538	0.1521363486947105	-0.009647250449063784	0.04712062214064573	0.00620762646536412	0.04930612172076853	-0.1763871462957691	-0.01216316778032165	-0.05234599706858827	-0.0003699238360133331	-0.139380766107903	-0.1393807661078871	7.461818148028136e-05	-1.521121487171564e-05	-0.01814776352770137	-0.01618896323555069	-0.4577216102569536	0.0006237752149396383	-0.01555549357653351	-0.2401531414614668	0.0682376920886118	0.03661461735371294	0.3638194857380897	-23.9806013122192	-11.98159628417358	1.826114779466355	12.98445570066632	-733.4834000007077	-49.67436494560726	-0.1182971480553011	1.958679438204321	0.1968097875946147	1.765956873924486	-6.498515822636223	-0.4165556121375711	-1.870503710585236	-0.01815116491194766	-4.942776505788694	-4.942776505787932	0.03363245507426504	-0.0111762531149066	-0.6883970584225338	-0.5665674321125516	-1.283718783425601e-08	-2.664330650875028e-08	9.04898504465827e-08	1.273036678164609e-08	-2.10214528896429e-08	7.503458597728401e-08	-2.011257299682486e-08
